<mxfile host="app.diagrams.net" agent="Mozilla/5.0 (Windows NT 10.0; Win64; x64) AppleWebKit/537.36 (KHTML, like Gecko) Chrome/133.0.0.0 Safari/537.36" version="26.0.16">
  <diagram name="Page-1" id="D4q5tEcJvxxqsNZ87j3F">
    <mxGraphModel grid="1" page="1" gridSize="10" guides="1" tooltips="1" connect="1" arrows="1" fold="1" pageScale="1" pageWidth="850" pageHeight="1100" math="0" shadow="0">
      <root>
        <mxCell id="0" />
        <mxCell id="1" parent="0" />
        <mxCell id="KAA5bvg93LTZcS8CTPWL-24" value="" style="rounded=1;whiteSpace=wrap;html=1;fillColor=#d5e8d4;strokeColor=#82b366;dashed=1;dashPattern=12 12;" vertex="1" parent="1">
          <mxGeometry x="-200" y="-60" width="1800" height="610" as="geometry" />
        </mxCell>
        <mxCell id="KAA5bvg93LTZcS8CTPWL-1" value="" style="shape=image;verticalLabelPosition=bottom;labelBackgroundColor=default;verticalAlign=top;aspect=fixed;imageAspect=0;image=https://medlineplus.gov/images/Xray_share.jpg;fontStyle=0" vertex="1" parent="1">
          <mxGeometry x="-230" y="110.00000000000001" width="272.01" height="181.33" as="geometry" />
        </mxCell>
        <mxCell id="KAA5bvg93LTZcS8CTPWL-2" value="" style="endArrow=classic;html=1;rounded=0;strokeWidth=6;" edge="1" parent="1" source="KAA5bvg93LTZcS8CTPWL-3">
          <mxGeometry width="50" height="50" relative="1" as="geometry">
            <mxPoint x="42.01" y="210" as="sourcePoint" />
            <mxPoint x="270" y="210" as="targetPoint" />
          </mxGeometry>
        </mxCell>
        <mxCell id="KAA5bvg93LTZcS8CTPWL-4" value="" style="endArrow=classic;html=1;rounded=0;strokeWidth=6;" edge="1" parent="1">
          <mxGeometry width="50" height="50" relative="1" as="geometry">
            <mxPoint x="290" y="209.09" as="sourcePoint" />
            <mxPoint x="460" y="210" as="targetPoint" />
          </mxGeometry>
        </mxCell>
        <mxCell id="KAA5bvg93LTZcS8CTPWL-6" value="" style="rounded=0;whiteSpace=wrap;html=1;" vertex="1" parent="1">
          <mxGeometry x="460" y="80.67" width="20" height="240" as="geometry" />
        </mxCell>
        <mxCell id="KAA5bvg93LTZcS8CTPWL-7" value="" style="rounded=0;whiteSpace=wrap;html=1;" vertex="1" parent="1">
          <mxGeometry x="490" y="80.67" width="20" height="240" as="geometry" />
        </mxCell>
        <mxCell id="KAA5bvg93LTZcS8CTPWL-8" value="" style="rounded=0;whiteSpace=wrap;html=1;" vertex="1" parent="1">
          <mxGeometry x="520" y="80.67" width="20" height="240" as="geometry" />
        </mxCell>
        <mxCell id="KAA5bvg93LTZcS8CTPWL-9" value="" style="rounded=0;whiteSpace=wrap;html=1;" vertex="1" parent="1">
          <mxGeometry x="550" y="80.67" width="20" height="240" as="geometry" />
        </mxCell>
        <mxCell id="KAA5bvg93LTZcS8CTPWL-10" value="" style="rounded=0;whiteSpace=wrap;html=1;" vertex="1" parent="1">
          <mxGeometry x="580" y="80.67" width="20" height="240" as="geometry" />
        </mxCell>
        <mxCell id="KAA5bvg93LTZcS8CTPWL-11" value="" style="rounded=0;whiteSpace=wrap;html=1;" vertex="1" parent="1">
          <mxGeometry x="610" y="80.67" width="20" height="240" as="geometry" />
        </mxCell>
        <mxCell id="KAA5bvg93LTZcS8CTPWL-12" value="&lt;font face=&quot;Verdana&quot; style=&quot;font-size: 24px;&quot;&gt;&lt;b&gt;Seed&lt;/b&gt;&lt;/font&gt;" style="text;html=1;align=center;verticalAlign=middle;whiteSpace=wrap;rounded=0;" vertex="1" parent="1">
          <mxGeometry x="-148.99" y="291.33" width="110" height="60" as="geometry" />
        </mxCell>
        <mxCell id="KAA5bvg93LTZcS8CTPWL-13" value="&lt;font face=&quot;Verdana&quot;&gt;&lt;span style=&quot;font-size: 24px;&quot;&gt;&lt;b&gt;Extracts features from seed&lt;/b&gt;&lt;/span&gt;&lt;/font&gt;" style="text;html=1;align=center;verticalAlign=middle;whiteSpace=wrap;rounded=0;" vertex="1" parent="1">
          <mxGeometry x="110" y="350" width="260" height="60" as="geometry" />
        </mxCell>
        <mxCell id="KAA5bvg93LTZcS8CTPWL-14" value="&lt;font face=&quot;Verdana&quot;&gt;&lt;span style=&quot;font-size: 24px;&quot;&gt;&lt;b&gt;Construct content and diverse features&lt;/b&gt;&lt;/span&gt;&lt;/font&gt;" style="text;html=1;align=center;verticalAlign=middle;whiteSpace=wrap;rounded=0;" vertex="1" parent="1">
          <mxGeometry x="420" y="360" width="260" height="60" as="geometry" />
        </mxCell>
        <mxCell id="KAA5bvg93LTZcS8CTPWL-15" value="&lt;b&gt;&lt;font style=&quot;font-size: 17px;&quot;&gt;Residual blocks&lt;/font&gt;&lt;/b&gt;" style="rounded=0;whiteSpace=wrap;html=1;" vertex="1" parent="1">
          <mxGeometry x="460" y="190" width="170" height="40" as="geometry" />
        </mxCell>
        <mxCell id="KAA5bvg93LTZcS8CTPWL-16" value="" style="endArrow=classic;html=1;rounded=0;strokeWidth=6;" edge="1" parent="1">
          <mxGeometry width="50" height="50" relative="1" as="geometry">
            <mxPoint x="630" y="210" as="sourcePoint" />
            <mxPoint x="810" y="210" as="targetPoint" />
          </mxGeometry>
        </mxCell>
        <mxCell id="KAA5bvg93LTZcS8CTPWL-17" value="&lt;span style=&quot;font-size: 18px;&quot;&gt;&lt;b&gt;Trasnposed Convolutional layer&lt;/b&gt;&lt;/span&gt;" style="rounded=0;whiteSpace=wrap;html=1;" vertex="1" parent="1">
          <mxGeometry x="810" y="90" width="130" height="240" as="geometry" />
        </mxCell>
        <mxCell id="KAA5bvg93LTZcS8CTPWL-18" value="&lt;font face=&quot;Verdana&quot;&gt;&lt;span style=&quot;font-size: 24px;&quot;&gt;&lt;b&gt;Feature vector&lt;/b&gt;&lt;/span&gt;&lt;/font&gt;" style="text;html=1;align=center;verticalAlign=middle;whiteSpace=wrap;rounded=0;" vertex="1" parent="1">
          <mxGeometry x="680" y="139.99999999999997" width="110" height="60" as="geometry" />
        </mxCell>
        <mxCell id="KAA5bvg93LTZcS8CTPWL-20" value="" style="endArrow=classic;html=1;rounded=0;strokeWidth=6;" edge="1" parent="1" target="KAA5bvg93LTZcS8CTPWL-3">
          <mxGeometry width="50" height="50" relative="1" as="geometry">
            <mxPoint x="42.01" y="210" as="sourcePoint" />
            <mxPoint x="270" y="210" as="targetPoint" />
          </mxGeometry>
        </mxCell>
        <mxCell id="KAA5bvg93LTZcS8CTPWL-3" value="&lt;font style=&quot;font-size: 18px;&quot;&gt;&lt;b&gt;Down sampling layer&amp;nbsp;&lt;/b&gt;&lt;/font&gt;" style="rounded=0;whiteSpace=wrap;html=1;" vertex="1" parent="1">
          <mxGeometry x="170" y="90" width="130" height="240" as="geometry" />
        </mxCell>
        <mxCell id="KAA5bvg93LTZcS8CTPWL-21" value="" style="endArrow=classic;html=1;rounded=0;strokeWidth=6;" edge="1" parent="1">
          <mxGeometry width="50" height="50" relative="1" as="geometry">
            <mxPoint x="940" y="209.09" as="sourcePoint" />
            <mxPoint x="1110" y="210" as="targetPoint" />
          </mxGeometry>
        </mxCell>
        <mxCell id="KAA5bvg93LTZcS8CTPWL-22" value="" style="shape=image;verticalLabelPosition=bottom;labelBackgroundColor=default;verticalAlign=top;aspect=fixed;imageAspect=0;image=https://thumbs.dreamstime.com/b/pixel-tv-2975742.jpg;" vertex="1" parent="1">
          <mxGeometry x="1110" y="120.67000000000002" width="299.63" height="200" as="geometry" />
        </mxCell>
        <mxCell id="KAA5bvg93LTZcS8CTPWL-23" value="&lt;font face=&quot;Verdana&quot;&gt;&lt;span style=&quot;font-size: 24px;&quot;&gt;&lt;b&gt;Generated key&amp;nbsp;&lt;/b&gt;&lt;/span&gt;&lt;/font&gt;" style="text;html=1;align=center;verticalAlign=middle;whiteSpace=wrap;rounded=0;" vertex="1" parent="1">
          <mxGeometry x="1129.82" y="340" width="260" height="60" as="geometry" />
        </mxCell>
      </root>
    </mxGraphModel>
  </diagram>
</mxfile>
